<?xml version="1.0" encoding="UTF-8"?>
<svg width="409px" height="168px" viewBox="0 0 409 168" version="1.1" xmlns="http://www.w3.org/2000/svg" xmlns:xlink="http://www.w3.org/1999/xlink">
    <!-- Generator: Sketch 44.1 (41455) - http://www.bohemiancoding.com/sketch -->
    <title>404</title>
    <desc>Created with Sketch.</desc>
    <defs></defs>
    <g id="Assets" stroke="none" stroke-width="1" fill="none" fill-rule="evenodd">
        <g id="Elements" transform="translate(-2410.000000, -71.000000)">
            <g id="404" transform="translate(2410.000000, 71.000000)">
                <path d="M365.461318,154.4 L365.461318,125.283095 L308.4,125.283095 L308.4,102.028653 L373.864183,18 L391.646991,18 L391.646991,101.833238 L408.843553,101.833238 L408.843553,125.283095 L391.646991,125.283095 L391.646991,154.4 L365.461318,154.4 Z M334.585673,101.833238 L368.39255,101.833238 L368.39255,57.669341 L334.585673,101.833238 Z" id="4" fill="#FFFFFF"></path>
                <path d="M229.972,111.99995 L182.028,111.99995 C179.901421,112.007393 177.859389,111.167826 176.353037,109.666728 C174.846684,108.165631 173.999987,106.126547 174,103.999956 L174,67.9999866 C173.999955,63.595733 177.559787,60.0198124 181.964,59.9999933 L188.344,59.9999933 L194.488,53.8519984 C195.72169,52.6942393 197.340488,52.0344658 199.032,52 L212.968,52 C214.659512,52.0344658 216.27831,52.6942393 217.512,53.8519984 L223.656,59.9999933 L230.036,59.9999933 C234.440213,60.0198124 238.000045,63.595733 238,67.9999866 L238,104.039956 C237.977959,108.453548 234.385623,112.015452 229.972,111.99995 L229.972,111.99995 L229.972,111.99995 Z M230,67.9999866 L223.032,67.9999866 C221.336749,67.9838748 219.711534,67.321486 218.488,66.1479881 L212.344,59.9999933 L199.656,59.9999933 L193.512,66.1479881 C192.288466,67.321486 190.663251,67.9838748 188.968,67.9999866 L182,67.9999866 L182,103.999956 L230,103.999956 L230,67.9999866 L230,67.9999866 L230,67.9999866 Z M206,67.9999866 C214.836556,67.9999866 222,75.1634245 222,83.9999731 C222,92.8365217 214.836556,99.9999597 206,99.9999597 C197.163444,99.9999597 190,92.8365217 190,83.9999731 C190,75.1634245 197.163444,67.9999866 206,67.9999866 L206,67.9999866 L206,67.9999866 Z M206,91.9999664 C210.418278,91.9999664 214,88.4182474 214,83.9999731 C214,79.5816988 210.418278,75.9999798 206,75.9999798 C201.581722,75.9999798 198,79.5816988 198,83.9999731 C198,88.4182474 201.581722,91.9999664 206,91.9999664 L206,91.9999664 L206,91.9999664 Z" id="Camera-Icon" fill="#FFFFFF"></path>
                <path d="M206,168 C159.608081,168 122,130.391919 122,84 C122,37.608081 159.608081,0 206,0 C252.391919,0 290,37.608081 290,84 C290,130.391919 252.391919,168 206,168 Z M206,160 C247.973641,160 282,125.973641 282,84 C282,42.026359 247.973641,8 206,8 C164.026359,8 130,42.026359 130,84 C130,125.973641 164.026359,160 206,160 Z" id="Circle" fill="#F44A66" fill-rule="nonzero"></path>
                <polygon id="Line" fill="#F44A66" transform="translate(206.363221, 82.363221) rotate(-315.000000) translate(-206.363221, -82.363221) " points="125.631728 78.2235799 287.094715 78.2235799 287.094715 86.5028629 125.631728 86.5028629"></polygon>
                <path d="M56.9229572,153.4 L56.9229572,124.353696 L0,124.353696 L0,101.155642 L65.3054475,17.3307393 L83.0451362,17.3307393 L83.0451362,100.9607 L100.2,100.9607 L100.2,124.353696 L83.0451362,124.353696 L83.0451362,153.4 L56.9229572,153.4 Z M26.122179,100.9607 L59.8470817,100.9607 L59.8470817,56.9038911 L26.122179,100.9607 Z" id="4" fill="#FFFFFF"></path>
            </g>
        </g>
    </g>
</svg>