<?xml version="1.0" encoding="UTF-8"?>
<svg width="16px" height="16px" viewBox="0 0 16 16" version="1.1" xmlns="http://www.w3.org/2000/svg" xmlns:xlink="http://www.w3.org/1999/xlink">
    <!-- Generator: Sketch 44.1 (41455) - http://www.bohemiancoding.com/sketch -->
    <title>500px White Icon</title>
    <desc>Created with Sketch.</desc>
    <defs></defs>
    <g id="Assets" stroke="none" stroke-width="1" fill="none" fill-rule="evenodd">
        <g id="Elements" transform="translate(-2225.000000, -68.000000)" fill="#FFFFFF">
            <g id="Social-Icons" transform="translate(2029.000000, 52.000000)">
                <g id="500px" transform="translate(180.000000, 0.000000)">
                    <path d="M24,48 C10.745166,48 0,37.254834 0,24 C0,10.745166 10.745166,7.10542736e-14 24,7.10542736e-14 C37.254834,7.10542736e-14 48,10.745166 48,24 C48,37.254834 37.254834,48 24,48 Z M24,46 C36.1502645,46 46,36.1502645 46,24 C46,11.8497355 36.1502645,2 24,2 C11.8497355,2 2,11.8497355 2,24 C2,36.1502645 11.8497355,46 24,46 Z" id="Base" opacity="0.300000012"></path>
                    <path d="M24,7.10542736e-14 C37.254834,7.10542736e-14 48,10.745166 48,24 C48,37.254834 37.254834,48 24,48 L24,46 C36.1502645,46 46,36.1502645 46,24 C46,11.8497355 36.1502645,2 24,2 L24,7.10542736e-14 Z" id="half-circle-icon"></path>
                    <path d="M19.176,26.512 C19.1755504,26.5153669 19.2583492,26.7443917 19.304,26.864 C20.3247874,29.2774019 22.9760203,30.5689932 25.512,29.872 C28.0395587,29.1891066 29.669851,26.7307385 29.32,24.128 C28.9724601,21.5267763 26.7524821,19.5848825 24.136,19.584 C23.4137126,19.5865339 22.6995108,19.728835 22.056,20 C21.5543587,20.2132024 20.6932573,20.7672653 20.184,21.28 L20.184,21.296 L20.184,16.976 L27.416,16.976 C27.6847802,16.9800252 27.6847802,16.6123287 27.688,16.496 C27.6847802,16.3707046 27.6847802,16.0031201 27.416,16 L19.592,16 C19.4082075,15.999328 19.2540305,16.1519345 19.256,16.336 L19.256,22.4 C19.2526759,22.5995281 19.49631,22.7407419 19.72,22.784 C20.1647735,22.8836986 20.2668936,22.7423888 20.376,22.592 L20.392,22.576 C20.5548437,22.3274611 21.0713895,21.8075984 21.08,21.808 C21.8826614,20.9963382 22.9604845,20.5524067 24.104,20.56 C25.2568616,20.5524067 26.3316163,20.9963382 27.144,21.808 C27.9465211,22.6112799 28.3919184,23.6830471 28.392,24.816 C28.3956386,25.9525775 27.9462956,27.0392836 27.144,27.84 C26.3496911,28.6324557 25.2398895,29.088091 24.104,29.088 C23.3267747,29.088091 22.5811058,28.8822341 21.944,28.496 L21.944,24.8 C21.9449883,24.3148161 22.15829,23.7804834 22.52,23.376 C22.9151104,22.919656 23.4935642,22.6586181 24.104,22.656 C24.6950409,22.6616129 25.2501654,22.8872641 25.656,23.296 C26.0725565,23.6993122 26.3021014,24.2494357 26.296,24.816 C26.3005807,26.0550148 25.3319095,27.0200082 24.088,27.024 C23.8569525,27.0200082 23.423589,26.9146734 23.4,26.912 C23.156095,26.8359761 23.0498836,27.1825992 23.016,27.296 C22.8805304,27.7362784 23.0825013,27.8233859 23.128,27.84 C23.5222732,27.959883 23.783199,27.9832908 24.12,27.984 C25.8711806,27.9832908 27.2914019,26.5623902 27.288,24.816 C27.2914019,23.0833838 25.8720276,21.6738993 24.12,21.68 C23.2730937,21.6738993 22.4704996,22.0004724 21.864,22.592 C21.2932891,23.1582278 20.9639476,23.9112565 20.968,24.656 L20.968,24.672 C20.9608153,24.771091 20.9589934,26.9809793 20.952,27.712 L20.952,27.696 C20.6271269,27.3392583 20.3028355,26.7831168 20.088,26.208 C20.0035068,25.9921944 19.8131382,26.031623 19.56,26.112 C19.4398482,26.1465831 19.0945575,26.2529572 19.176,26.496 L19.176,26.512 Z M22.904,25.648 C22.90519,25.7505718 23.0019313,25.8435057 23.064,25.904 L23.08,25.92 C23.1769648,26.0143991 23.271362,26.0639617 23.352,26.064 C23.407028,26.0649307 23.4542423,26.0474802 23.496,26.016 C23.5342871,25.9744355 24.0280867,25.4726501 24.072,25.424 L24.632,25.968 C24.6769242,26.0328291 24.7323029,26.061626 24.792,26.064 C24.8848373,26.0634818 24.9806697,26.0110555 25.08,25.904 C25.3193038,25.6642932 25.2004462,25.5330915 25.144,25.472 L24.584,24.912 L25.16,24.32 C25.2944129,24.1837504 25.18179,24.0365984 25.064,23.92 C24.9061724,23.7602125 24.7487108,23.7179611 24.648,23.808 L24.072,24.4 L23.48,23.808 C23.4538031,23.7760498 23.4131741,23.7596881 23.368,23.76 C23.2929841,23.7600045 23.2007395,23.8127988 23.096,23.92 C22.9167505,24.0975838 22.8781624,24.2223222 22.968,24.32 L23.56,24.912 L22.968,25.488 C22.927418,25.5393948 22.903436,25.5909092 22.904,25.648 L22.904,25.648 Z M24.168,17.712 C23.235495,17.7120136 22.2382193,17.9014874 21.512,18.224 C21.4272676,18.2495069 21.3804229,18.3124994 21.368,18.4 C21.3605567,18.4844441 21.3830281,18.5945809 21.432,18.736 C21.4844849,18.8541388 21.6051847,19.1629541 21.832,19.072 C22.5887634,18.7873203 23.4177593,18.629607 24.168,18.624 C25.0206769,18.6279031 25.8598474,18.797467 26.648,19.136 C27.2612773,19.3910558 27.8468759,19.7708197 28.488,20.32 C28.523491,20.3608206 28.5755944,20.3824306 28.632,20.384 C28.7543619,20.384 28.8734315,20.261921 28.968,20.144 C29.1454535,19.9564835 29.2621257,19.7977776 29.096,19.632 C28.4864953,19.0621661 27.8201851,18.6313199 27,18.288 C26.1038875,17.9043334 25.1432707,17.7101253 24.168,17.712 L24.168,17.712 Z M29.224,29.296 L29.224,29.296 C29.1188622,29.1863359 29.0229053,29.1199235 28.936,29.088 C28.8530616,29.071269 28.7766159,29.0895544 28.712,29.152 L28.664,29.2 C27.4753485,30.3915502 25.8648957,31.058813 24.184,31.056 C22.5062027,31.058813 20.8957498,30.3915502 19.704,29.2 C19.103167,28.5988378 18.646636,27.9225021 18.36,27.2 C18.0649612,26.4832149 17.9711793,25.9487988 17.944,25.776 C17.9374664,25.7567382 17.9351954,25.7437275 17.928,25.728 C17.893886,25.5275475 17.7033475,25.5130822 17.432,25.552 C17.3157296,25.5723339 16.9691971,25.6252401 17,25.872 L17,25.888 C17.4347174,28.5773042 19.343236,30.8048615 21.944,31.648 C24.5436239,32.4878352 27.3963418,31.8011314 29.336,29.872 C29.3294876,29.8671311 29.3659513,29.8310238 29.384,29.808 C29.4595093,29.7293513 29.5234806,29.5894457 29.224,29.296 Z"></path>
                </g>
            </g>
        </g>
    </g>
</svg>