<?xml version="1.0" encoding="UTF-8"?>
<svg width="16px" height="16px" viewBox="0 0 16 16" version="1.1" xmlns="http://www.w3.org/2000/svg" xmlns:xlink="http://www.w3.org/1999/xlink">
    <!-- Generator: Sketch 44.1 (41455) - http://www.bohemiancoding.com/sketch -->
    <title>Facebook White Icon</title>
    <desc>Created with Sketch.</desc>
    <defs></defs>
    <g id="Assets" stroke="none" stroke-width="1" fill="none" fill-rule="evenodd">
        <g id="Elements" transform="translate(-2105.000000, -68.000000)" fill="#FFFFFF">
            <g id="Social-Icons" transform="translate(2029.000000, 52.000000)">
                <g id="Facebook" transform="translate(60.000000, 0.000000)">
                    <path d="M24,48 C10.745166,48 0,37.254834 0,24 C0,10.745166 10.745166,7.10542736e-14 24,7.10542736e-14 C37.254834,7.10542736e-14 48,10.745166 48,24 C48,37.254834 37.254834,48 24,48 Z M24,46 C36.1502645,46 46,36.1502645 46,24 C46,11.8497355 36.1502645,2 24,2 C11.8497355,2 2,11.8497355 2,24 C2,36.1502645 11.8497355,46 24,46 Z" id="Base" opacity="0.300000012"></path>
                    <path d="M24,7.10542736e-14 C37.254834,7.10542736e-14 48,10.745166 48,24 C48,37.254834 37.254834,48 24,48 L24,46 C36.1502645,46 46,36.1502645 46,24 C46,11.8497355 36.1502645,2 24,2 L24,7.10542736e-14 Z" id="half-circle-icon"></path>
                    <path d="M22.6676666,32 L22.6676666,24.6830487 L20,24.6830487 L20,21.8842149 L22.6683094,21.8842149 L22.6683094,19.7717618 C22.6683094,17.3394419 24.2560531,16 26.6055282,16 C27.7304478,16 28.7178059,16.0733028 29,16.1066222 L29,18.6855477 L27.3286908,18.6855477 C26.0507821,18.6855477 25.8116563,19.2453145 25.8116563,20.0716368 L25.8116563,21.8842149 L28.8695093,21.8842149 L28.472252,24.6830487 L25.8116563,24.6830487 L25.8116563,32 L22.6618813,32 L22.6676666,32 Z" id="Facebook-Icon"></path>
                </g>
            </g>
        </g>
    </g>
</svg>