<?xml version="1.0" encoding="UTF-8"?>
<svg width="16px" height="16px" viewBox="0 0 16 16" version="1.1" xmlns="http://www.w3.org/2000/svg" xmlns:xlink="http://www.w3.org/1999/xlink">
    <!-- Generator: Sketch 44.1 (41455) - http://www.bohemiancoding.com/sketch -->
    <title>Instagram White Icon</title>
    <desc>Created with Sketch.</desc>
    <defs></defs>
    <g id="Assets" stroke="none" stroke-width="1" fill="none" fill-rule="evenodd">
        <g id="Elements" transform="translate(-2165.000000, -68.000000)" fill="#FFFFFF">
            <g id="Social-Icons" transform="translate(2029.000000, 52.000000)">
                <g id="Instagram" transform="translate(120.000000, 0.000000)">
                    <path d="M24,48 C10.745166,48 0,37.254834 0,24 C0,10.745166 10.745166,7.10542736e-14 24,7.10542736e-14 C37.254834,7.10542736e-14 48,10.745166 48,24 C48,37.254834 37.254834,48 24,48 Z M24,46 C36.1502645,46 46,36.1502645 46,24 C46,11.8497355 36.1502645,2 24,2 C11.8497355,2 2,11.8497355 2,24 C2,36.1502645 11.8497355,46 24,46 Z" id="Base" opacity="0.300000012"></path>
                    <path d="M24,7.10542736e-14 C37.254834,7.10542736e-14 48,10.745166 48,24 C48,37.254834 37.254834,48 24,48 L24,46 C36.1502645,46 46,36.1502645 46,24 C46,11.8497355 36.1502645,2 24,2 L24,7.10542736e-14 Z" id="half-circle-icon"></path>
                    <path d="M16,20.6278629 C16,18.0719648 18.058965,16 20.6278629,16 L27.3721371,16 C29.9280352,16 32,18.058965 32,20.6278629 L32,27.3721371 C32,29.9280352 29.941035,32 27.3721371,32 L20.6278629,32 C18.0719648,32 16,29.941035 16,27.3721371 L16,20.6278629 Z M17.4482759,20.7548291 L17.4482759,27.2451709 C17.4482759,29.0740634 18.9286702,30.5517241 20.7548291,30.5517241 L27.2451709,30.5517241 C29.0740634,30.5517241 30.5517241,29.0713298 30.5517241,27.2451709 L30.5517241,20.7548291 C30.5517241,18.9259366 29.0713298,17.4482759 27.2451709,17.4482759 L20.7548291,17.4482759 C18.9259366,17.4482759 17.4482759,18.9286702 17.4482759,20.7548291 Z M24,28.0689655 C21.7527724,28.0689655 19.9310345,26.2472276 19.9310345,24 C19.9310345,21.7527724 21.7527724,19.9310345 24,19.9310345 C26.2472276,19.9310345 28.0689655,21.7527724 28.0689655,24 C28.0689655,26.2472276 26.2472276,28.0689655 24,28.0689655 Z M24,26.6206897 C25.4473669,26.6206897 26.6206897,25.4473669 26.6206897,24 C26.6206897,22.5526331 25.4473669,21.3793103 24,21.3793103 C22.5526331,21.3793103 21.3793103,22.5526331 21.3793103,24 C21.3793103,25.4473669 22.5526331,26.6206897 24,26.6206897 Z M28.2068966,20.6896552 C27.6736561,20.6896552 27.2413793,20.2573784 27.2413793,19.7241379 C27.2413793,19.1908975 27.6736561,18.7586207 28.2068966,18.7586207 C28.740137,18.7586207 29.1724138,19.1908975 29.1724138,19.7241379 C29.1724138,20.2573784 28.740137,20.6896552 28.2068966,20.6896552 Z"></path>
                </g>
            </g>
        </g>
    </g>
</svg>