<?xml version="1.0" encoding="UTF-8"?>
<svg width="100px" height="49px" viewBox="0 0 100 49" version="1.1" xmlns="http://www.w3.org/2000/svg" xmlns:xlink="http://www.w3.org/1999/xlink">
    <!-- Generator: Sketch 44.1 (41455) - http://www.bohemiancoding.com/sketch -->
    <title>Lonely Planet</title>
    <desc>Created with Sketch.</desc>
    <defs></defs>
    <g id="Assets" stroke="none" stroke-width="1" fill="none" fill-rule="evenodd">
        <g id="Elements" transform="translate(-358.000000, -747.000000)" fill="#000000">
            <g id="Logotypes" transform="translate(102.000000, 747.000000)">
                <g id="Lonely-Planet" transform="translate(256.000000, 0.000000)">
                    <path d="M86.4865772,24.292589 L90.847651,24.292589 C90.1765101,22.0271781 87.0738255,22.1110822 86.4865772,24.292589 Z M99.3194631,26.3895205 L99.485906,26.2217123 L99.5711409,29.241589 C99.6536913,29.9960548 96.8865772,31.0868082 95.2926174,29.9121507 C93.7838926,28.8220685 93.7838926,27.5641781 93.7838926,25.8021918 L86.4865772,25.8021918 C87.3255034,27.8991233 89.757047,27.647411 90.4281879,26.6412329 L93.4483221,27.1439863 C92.3577181,30.5833836 89.3375839,31.0868082 86.5704698,30.0799589 C85.0604027,29.4093973 84.2214765,28.5696849 83.5503356,27.0600822 L83.5503356,30.4994795 L80.0281879,30.4994795 L80.0281879,23.8723973 C79.9442953,22.4473699 77.6805369,22.5306027 77.6805369,23.9563014 L77.6805369,30.4994795 L74.157047,30.5833836 L71.809396,30.5833836 L71.7255034,28.4857808 C71.7255034,27.647411 70.8026846,30.6672877 69.7120805,30.5833836 C67.195302,30.7511918 65.2671141,29.4933014 64.2604027,27.3117945 L64.2604027,30.4994795 L60.6530201,30.4994795 L60.6530201,27.3117945 C59.5637584,29.4093973 56.8791946,30.7511918 54.1959732,30.0799589 L53.7765101,29.9121507 C53.7765101,29.9121507 53.8604027,33.6032603 53.8604027,34.6101096 L50.338255,34.6101096 L50.338255,25.0470548 C50.4208054,20.6014795 55.2852349,17.9165479 58.8926174,20.6014795 C59.7315436,21.2720411 60.1510067,21.8593699 60.6530201,22.7823151 L60.6530201,15.2322877 L64.2604027,15.2322877 L64.2604027,22.7823151 C65.3510067,20.3497671 67.6147651,19.2583425 70.2993289,19.6785342 C72.2288591,20.1819589 73.4020134,21.1888082 74.157047,23.0340274 C75.1637584,20.098726 77.9308725,18.9233973 80.8671141,19.9302466 C82.2919463,20.6014795 83.0483221,21.5244247 83.5503356,23.0340274 C84.8926174,20.098726 87.7449664,18.9233973 90.6798658,19.9302466 C92.1899329,20.6014795 93.1127517,21.5244247 93.7838926,23.0340274 L93.7838926,17.4137945 L97.2221477,17.4137945 L97.2221477,19.5946301 L99.4033557,19.5946301 L99.4033557,22.8668904 L97.2221477,22.8668904 C97.2221477,23.9569726 97.0543624,25.047726 97.3899329,26.0539041 C97.7255034,26.7244658 98.6483221,26.8929452 99.3194631,26.3895205 Z M55.8738255,22.6990822 C54.6154362,22.6990822 53.6087248,23.7052603 53.6087248,24.9638219 C53.6087248,26.2223836 54.6154362,27.2285616 55.8738255,27.2285616 C57.1308725,27.2285616 58.1375839,26.2223836 58.1375839,24.9638219 C58.1375839,23.7052603 57.1308725,22.6990822 55.8738255,22.6990822 Z M69.1248322,22.6990822 C67.866443,22.6990822 66.8610738,23.7052603 66.8610738,24.9638219 C66.8610738,26.2223836 67.866443,27.2285616 69.1248322,27.2285616 C70.3832215,27.2285616 71.3899329,26.2223836 71.3899329,24.9638219 C71.3899329,23.7052603 70.3832215,22.6990822 69.1248322,22.6990822 Z M94.8731544,32.1775616 L96.7187919,32.1775616 L96.7187919,32.4286027 L95.8798658,32.4286027 L95.8798658,34.4423014 L95.6281879,34.4423014 L95.6281879,32.4286027 L94.8731544,32.4286027 L94.8731544,32.1775616 Z M98.8161074,34.4423014 L98.8161074,33.0998356 L98.8161074,32.5125068 L98.1449664,34.4423014 L97.8932886,34.4423014 L97.2221477,32.5125068 L97.2221477,34.4423014 L96.9704698,34.4423014 L96.9704698,32.1775616 L97.3899329,32.1775616 L98.0610738,34.0227808 L98.6483221,32.1775616 L99.1516779,32.1775616 L99.1516779,34.4423014 L98.8161074,34.4423014 Z" id="Planet" fill-rule="nonzero"></path>
                    <path d="M45.8080537,31.2546164 L45.8080537,31.2546164 C45.8080537,32.5131781 45.3885906,33.4354521 44.5510067,34.3583973 C43.4610738,35.3645753 42.5375839,35.6162877 41.1120805,35.7840959 C39.3503356,35.9519041 38.0087248,35.4484795 36.666443,34.3583973 L38.7637584,31.5902329 C39.685906,32.5125068 41.4469799,32.5125068 42.0342282,31.1707123 C42.2020134,30.6672877 42.2020134,30.0799589 42.2020134,29.5772055 C40.5241611,31.3385205 37.5892617,30.4994795 37.0020134,28.1508356 L37.0020134,30.4994795 L33.395302,30.4994795 L33.395302,25.8021918 L26.1818792,25.8021918 C26.7691275,27.3117945 28.4463087,27.8991233 29.9563758,26.8083699 L32.8926174,27.2278904 C32.8926174,27.9830274 31.2986577,30.8350959 27.1885906,30.4155753 C25.2597315,29.9121507 24.0013423,28.8220685 23.2463087,27.0600822 L23.2463087,30.4994795 L19.7234899,30.4994795 L19.7234899,23.9563014 C19.6395973,22.4473699 17.4590604,22.5306027 17.2912752,23.9563014 L17.2912752,30.4994795 L13.852349,30.4994795 L13.852349,26.8929452 C12.8449664,29.0737808 11.3355705,30.163863 8.9033557,30.3323425 C6.63892617,30.2484384 4.87785235,29.1576849 3.87114094,27.1439863 L3.87114094,30.4994795 L0.26442953,30.4994795 L0.26442953,15.2322877 L3.87114094,15.2322877 L3.87114094,22.7823151 C4.62550336,21.1888082 5.71610738,20.265863 7.39395973,19.7624384 C10.2456376,19.0912055 12.6778523,20.3497671 13.852349,23.0340274 C14.5234899,20.6853836 16.3691275,19.5946301 18.7174497,19.5946301 C20.9818792,19.6785342 22.5751678,20.8525205 23.2463087,23.0340274 C24.0013423,21.1888082 25.342953,20.0980548 27.3563758,19.6785342 C30.0395973,19.2590137 32.304698,20.5175753 33.395302,23.0340274 L33.395302,15.2322877 L37.0020134,15.2322877 L37.0020134,19.5946301 L40.5241611,19.5946301 L40.5241611,26.2223836 C40.5241611,27.4809452 42.2852349,27.4809452 42.2852349,26.2223836 L42.2852349,19.5946301 L45.8080537,19.5946301 L45.8080537,31.2546164 Z M30.5436242,24.4603973 L26.0979866,24.4603973 C26.7691275,22.1949863 29.7885906,22.1949863 30.5436242,24.4603973 Z M8.73624161,22.6145068 L8.73624161,22.6145068 C8.13491136,22.6119957 7.55748487,22.849795 7.13227646,23.2750617 C6.70706805,23.7003284 6.46930127,24.2778339 6.47181208,24.8792466 C6.47181208,26.1378082 7.47852349,27.2278904 8.73624161,27.2278904 C9.99463087,27.2278904 11.0013423,26.1378082 11.0013423,24.8792466 C11.0038544,24.2777171 10.7659957,23.7001088 10.3406416,23.2748225 C9.9152876,22.8495363 9.33768793,22.6118162 8.73624161,22.6145068 Z" id="Lonely"></path>
                    <path d="M26.014094,16.6586575 C29.2845638,7.09627397 38.3436242,0.217479452 48.9114094,0.217479452 C59.5637584,0.217479452 68.5375839,7.01236986 71.809396,16.6586575 L70.5510067,17.0781781 L69.2926174,17.4976986 C66.3563758,9.02539726 58.3892617,2.98564384 48.9114094,2.98564384 C39.5174497,2.98564384 31.4657718,9.1099726 28.4463087,17.5816027 L26.014094,16.6586575 Z M71.809396,32.5131781 C68.5375839,41.9084247 59.4798658,48.619411 48.9114094,48.619411 C38.2590604,48.619411 29.2845638,41.9923288 26.014094,32.5131781 L27.2724832,32.0936575 L28.4463087,31.6748082 C31.466443,39.9786301 39.4342282,45.8512466 48.9114094,45.8512466 C58.3053691,45.8512466 66.3563758,39.8953973 69.3765101,31.5909041 L71.809396,32.5131781 L71.809396,32.5131781 Z" id="Circle" fill-rule="nonzero"></path>
                </g>
            </g>
        </g>
    </g>
</svg>