<?xml version="1.0" encoding="UTF-8"?>
<svg width="110px" height="32px" viewBox="0 0 110 32" version="1.1" xmlns="http://www.w3.org/2000/svg" xmlns:xlink="http://www.w3.org/1999/xlink">
    <!-- Generator: Sketch 44.1 (41455) - http://www.bohemiancoding.com/sketch -->
    <title>National Geographic</title>
    <desc>Created with Sketch.</desc>
    <defs></defs>
    <g id="Assets" stroke="none" stroke-width="1" fill="none" fill-rule="evenodd">
        <g id="Elements" transform="translate(-611.000000, -884.000000)" fill-rule="nonzero" fill="#000000">
            <g id="Logotypes" transform="translate(102.000000, 747.000000)">
                <path d="M546.536871,151.357052 L545.141748,151.357052 C543.309124,148.793779 541.491522,146.24662 539.676423,143.367897 L539.663279,143.367897 L539.663279,151.357052 L538.121071,151.357052 L538.121071,140.217725 L539.517445,140.217725 C541.350069,142.763024 543.165168,145.292211 544.963368,148.15606 L544.995289,148.15606 L544.995289,140.217725 L546.537497,140.217725 L546.537497,151.357052 L546.536871,151.357052 Z M550.202745,146.948174 C550.650261,145.483712 551.100906,144.131425 551.503357,142.412248 L551.535904,142.412248 C551.985297,144.131425 552.387748,145.484332 552.805221,146.948174 L550.202745,146.948174 L550.202745,146.948174 Z M550.940051,140.217725 L547.053235,151.357052 L548.724378,151.357052 L549.702028,148.316574 L553.095011,148.316574 L553.978151,151.357052 L556.133111,151.357052 L552.547978,140.217725 L550.940051,140.217725 L550.940051,140.217725 Z M557.947584,151.357052 L557.947584,141.711934 L554.989599,141.711934 L554.989599,140.217725 L562.831452,140.217725 L562.831452,141.711934 L559.87597,141.711934 L559.87597,151.357052 L557.947584,151.357052 Z M563.456722,140.217725 L565.371964,140.217725 L565.371964,151.357052 L563.456722,151.357052 L563.456722,140.217725 Z M571.317978,149.954565 C569.306974,149.954565 568.600337,147.758802 568.600337,145.626254 C568.600337,143.574273 569.403362,141.616493 571.317978,141.616493 C573.230091,141.616493 574.030612,143.574273 574.030612,145.626254 C574.030612,147.758802 573.325227,149.954565 571.317978,149.954565 Z M571.317978,151.545455 C574.257812,151.545455 576.089185,148.953054 576.089185,145.625634 C576.089185,142.507689 574.06754,140.025603 571.317978,140.025603 C568.57092,140.025603 566.540513,142.507689 566.540513,145.625634 C566.541138,148.953674 568.37564,151.545455 571.317978,151.545455 Z M585.682921,151.357052 L584.285921,151.357052 C582.452045,148.793779 580.635694,146.24662 578.821847,143.367897 L578.8062,143.367897 L578.8062,151.357052 L577.265869,151.357052 L577.265869,140.217725 L578.66287,140.217725 C580.49299,142.763024 582.309341,145.292211 584.106289,148.15606 L584.139461,148.15606 L584.139461,140.217725 L585.683547,140.217725 L585.683547,151.357052 L585.682921,151.357052 Z M589.346917,146.948174 C589.798188,145.483712 590.245704,144.131425 590.650033,142.412248 L590.681954,142.412248 C591.131973,144.131425 591.532547,145.484332 591.949393,146.948174 L589.346917,146.948174 Z M590.087978,140.217725 L586.199285,151.357052 L587.87168,151.357052 L588.84933,148.316574 L592.241687,148.316574 L593.125452,151.357052 L595.277909,151.357052 L591.693402,140.217725 L590.087978,140.217725 Z M595.838086,140.217725 L597.753955,140.217725 L597.753955,149.860363 L601.560655,149.860363 L601.560655,151.357052 L595.838086,151.357052 L595.838086,140.217725 Z M545.351424,160.674323 L545.351424,165.271604 C544.321824,165.671341 543.244657,165.955804 542.154972,165.955804 C538.843355,165.955804 536.75474,163.409885 536.75474,160.131425 C536.75474,157.090948 538.843355,154.434714 542.218187,154.434714 C543.26093,154.434714 544.306177,154.818337 544.949598,155.294922 L544.32245,156.615602 C543.809215,156.300151 543.003687,156.029322 542.265756,156.029322 C540.210312,156.029322 538.810809,157.636945 538.810809,160.16737 C538.810809,162.806871 540.418736,164.364915 542.074231,164.364915 C542.586214,164.364915 543.022464,164.304179 543.426167,164.095325 L543.426167,160.674323 L545.351424,160.674323 L545.351424,160.674323 Z M552.248799,156.124763 L549.031067,156.124763 L549.031067,159.178255 L552.180577,159.178255 L552.180577,160.674323 L549.031067,160.674323 L549.031067,164.268234 L552.823372,164.268234 L552.823372,165.766162 L547.101429,165.766162 L547.101429,154.626215 L552.248799,154.626215 L552.248799,156.124763 Z M558.194187,164.364295 C556.183183,164.364295 555.475294,162.170392 555.475294,160.036604 C555.475294,157.985862 556.278945,156.028702 558.194187,156.028702 C560.105048,156.028702 560.906821,157.985862 560.906821,160.036604 C560.906821,162.170392 560.198307,164.364295 558.194187,164.364295 Z M558.194187,165.955804 C561.133396,165.955804 562.964142,163.362164 562.964142,160.035984 C562.964142,156.918039 560.94062,154.434094 558.194187,154.434094 C555.442748,154.434094 553.420477,156.918039 553.420477,160.035984 C553.419851,163.362784 555.24872,165.955804 558.194187,165.955804 L558.194187,165.955804 Z M572.219268,160.674323 L572.219268,165.271604 C571.189669,165.671341 570.115631,165.955804 569.021565,165.955804 C565.712452,165.955804 563.621959,163.409885 563.621959,160.131425 C563.621959,157.090948 565.712452,154.434714 569.087284,154.434714 C570.132531,154.434714 571.175274,154.818337 571.816817,155.294922 L571.189669,156.615602 C570.675183,156.300151 569.876539,156.029322 569.136104,156.029322 C567.07628,156.029322 565.678028,157.636945 565.678028,160.16737 C565.678028,162.806871 567.286581,164.364915 568.942076,164.364915 C569.457815,164.364915 569.889683,164.304179 570.29276,164.095325 L570.29276,160.674323 L572.219268,160.674323 L572.219268,160.674323 Z M575.919567,156.124763 L576.768908,156.124763 C577.906787,156.124763 578.55146,156.774257 578.55146,157.921408 C578.55146,159.415618 577.637026,160.083085 576.720088,160.130805 C576.526686,160.150017 576.076041,160.166131 575.919567,160.179765 L575.919567,156.124763 L575.919567,156.124763 Z M580.803434,165.766162 L578.533309,161.153387 C579.770706,160.502653 580.481724,159.178255 580.481724,157.841461 C580.481724,155.675446 579.145436,154.626215 576.991727,154.626215 L573.986799,154.626215 L573.986799,165.766162 L575.919567,165.766162 L575.919567,161.565519 L576.786433,161.565519 L578.599028,165.766162 L580.803434,165.766162 L580.803434,165.766162 Z M583.984239,161.357904 C584.433006,159.891583 584.883026,158.540535 585.286103,156.821978 L585.318024,156.821978 C585.768043,158.540535 586.168616,159.891583 586.586715,161.357904 L583.984239,161.357904 Z M584.72217,154.626215 L580.832226,165.766162 L582.503368,165.766162 L583.484774,162.725685 L586.877131,162.725685 L587.755889,165.766162 L589.913353,165.766162 L586.327594,154.626215 L584.72217,154.626215 L584.72217,154.626215 Z M593.527904,154.626215 L590.522976,154.626215 L590.522976,165.766162 L592.451988,165.766162 L592.451988,161.565519 L593.317602,161.565519 C595.617145,161.565519 597.016649,159.719293 597.016649,157.841461 C597.016649,155.674827 595.681612,154.626215 593.527904,154.626215 Z M593.257516,160.131425 C593.05723,160.149398 592.586556,160.164272 592.451988,160.177286 L592.451988,156.124763 L593.317602,156.124763 C594.442338,156.124763 595.087637,156.774257 595.087637,157.921408 C595.087637,159.415618 594.174454,160.083705 593.257516,160.131425 Z M605.950065,165.766162 L604.022305,165.766162 L604.022305,160.405353 L600.017821,160.405353 L600.017821,165.766162 L598.110715,165.766162 L598.110715,154.626215 L600.017821,154.626215 L600.017821,158.906806 L604.022305,158.906806 L604.022305,154.657822 L605.950065,154.657822 L605.950065,165.766162 Z M607.796459,154.626215 L609.712953,154.626215 L609.712953,165.766162 L607.796459,165.766162 L607.796459,154.626215 Z M618.387248,156.648449 C617.920329,156.361506 617.152355,156.028702 616.409416,156.028702 C614.445979,156.028702 613.020814,157.636325 613.020814,160.166751 C613.020814,162.806252 614.594317,164.364295 616.459487,164.364295 C617.142193,164.361111 617.810225,164.167825 618.387248,163.806523 L618.919259,165.192276 C618.337176,165.589534 617.311958,165.955804 616.38125,165.955804 C613.069634,165.955804 610.979141,163.409885 610.979141,160.131425 C610.979141,157.090948 613.051483,154.434714 616.409416,154.434714 C617.408346,154.434714 618.337176,154.851183 619,155.294922 L618.387248,156.648449 L618.387248,156.648449 Z M509,137 L531.554794,137 L531.554794,169 L509,169 L509,137 Z M512.250905,165.778557 L528.292624,165.778557 L528.292624,140.222683 L512.250905,140.222683 L512.250905,165.778557 L512.250905,165.778557 Z" id="National-Geographic"></path>
            </g>
        </g>
    </g>
</svg>