<?xml version="1.0" encoding="UTF-8"?>
<svg width="88px" height="24px" viewBox="0 0 88 24" version="1.1" xmlns="http://www.w3.org/2000/svg" xmlns:xlink="http://www.w3.org/1999/xlink">
    <!-- Generator: Sketch 44.1 (41455) - http://www.bohemiancoding.com/sketch -->
    <title>Netflix</title>
    <desc>Created with Sketch.</desc>
    <defs></defs>
    <g id="Assets" stroke="none" stroke-width="1" fill="none" fill-rule="evenodd">
        <g id="Elements" transform="translate(-364.000000, -888.000000)" fill-rule="nonzero" fill="#000000">
            <g id="Logotypes" transform="translate(102.000000, 747.000000)">
                <path d="M337.120735,163.474566 C338.346298,163.593994 339.571274,163.722269 340.793317,163.854966 L343.491433,157.157566 L346.056081,164.472748 C347.371992,164.638473 348.687316,164.812454 349.998533,164.994102 L345.50226,152.166364 L350,141.000885 L346.190723,141.000885 L346.151122,141.055733 L343.72141,147.08758 L341.588261,141.001769 L337.827091,141.001769 L341.709996,152.079078 L337.121028,163.474566 L337.120735,163.474566 Z M334.276244,163.21212 L334.276244,141.000885 L330.51654,141.000885 L330.51654,162.900428 C331.770557,162.997739 333.02516,163.102128 334.276244,163.211825 L334.276244,163.21212 Z M306.033734,161.970069 C307.048681,161.970069 308.062454,161.977736 309.074468,161.985993 L309.074468,153.825969 L313.590981,153.825969 L313.590981,150.351059 L309.074761,150.351059 L309.074761,144.479923 L314.27651,144.479923 L314.27651,141.000885 L305.300391,141.000885 L305.300391,161.973018 C305.544154,161.973018 305.789091,161.969185 306.033734,161.970069 L306.033734,161.970069 Z M294.360671,162.182386 C295.613222,162.137563 296.866945,162.099818 298.122428,162.06915 L298.122428,144.480513 L301.636608,144.480513 L301.636608,141.001769 L290.846491,141.001769 L290.846491,144.480513 L294.361258,144.480513 L294.361258,162.182386 L294.360671,162.182386 Z M265.606581,164.524352 L265.606581,151.291443 L270.058267,163.990023 C271.427272,163.835504 272.798331,163.690126 274.173202,163.55271 L274.173202,141.00118 L270.565741,141.00118 L270.565741,154.708262 L265.76205,141.00118 L262,141.00118 L262,165 L262.022587,165 C263.214416,164.834275 264.410352,164.676807 265.606581,164.524352 L265.606581,164.524352 Z M287.221136,144.479628 L287.221136,141.00118 L278.244137,141.00118 L278.244137,163.176734 C281.230869,162.91755 284.221048,162.7002 287.213803,162.524746 L287.213803,159.043053 C285.47842,159.144493 283.746557,159.261267 282.0188,159.391311 L282.0188,153.827444 L286.535314,153.827444 L286.535314,150.350469 L282.0188,150.350469 L282.0188,144.479628 L287.221136,144.479628 Z M321.72757,158.876739 L321.72757,141 L317.951439,141 L317.951439,162.195066 C320.955213,162.305942 323.947253,162.460461 326.929319,162.655084 L326.929319,159.171327 C325.198629,159.058977 323.465006,158.96137 321.72757,158.876444 L321.72757,158.876739 Z" id="Netflix"></path>
            </g>
        </g>
    </g>
</svg>