<?xml version="1.0" encoding="UTF-8"?>
<svg width="90px" height="19px" viewBox="0 0 90 19" version="1.1" xmlns="http://www.w3.org/2000/svg" xmlns:xlink="http://www.w3.org/1999/xlink">
    <!-- Generator: Sketch 44.1 (41455) - http://www.bohemiancoding.com/sketch -->
    <title>Shape</title>
    <desc>Created with Sketch.</desc>
    <defs></defs>
    <g id="Assets" stroke="none" stroke-width="1" fill="none" fill-rule="evenodd">
        <g id="Elements" transform="translate(-619.000000, -763.000000)" fill-rule="nonzero" fill="#000000">
            <g id="Logotypes" transform="translate(102.000000, 747.000000)">
                <path d="M524.09469,29.5208933 C525.535718,31.9228254 528.1786,33.5343571 531.119953,33.5343571 C535.465959,33.5343571 537.858372,29.7214905 537.858372,29.7214905 L538.16631,30.7371405 C536.154251,33.3974174 532.559819,35 528.538359,35 C523.908333,35 519.915276,32.7545946 518.077948,29.5165031 C517.386168,28.2968789 517,26.934574 517,25.4998311 C517,20.253066 522.165346,16 528.538193,16 C533.040992,16 536.666318,17.9607195 538.569419,20.8021755 L531.014151,25.4015588 L535.325942,18.6707458 C534.092365,17.8820341 532.578919,17.1434716 531.014151,17.1434716 C526.590745,17.1434716 522.947481,20.8960577 522.947481,25.3927784 C522.947481,26.8994526 523.368362,28.315115 524.09469,29.5208933 Z M544.324564,29.5181917 C544.301908,29.671616 544.290582,29.8265493 544.29068,29.9816928 C544.29068,31.6886264 545.651984,33.0727134 547.331191,33.0727134 C549.010397,33.0727134 550.371535,31.6887953 550.371535,29.9816928 C550.371606,29.8259836 550.360224,29.6704869 550.337486,29.5165031 C550.117578,28.0311045 548.855432,26.8908411 547.331025,26.8908411 C545.806783,26.8908411 544.544472,28.0311045 544.324564,29.5181917 L544.324564,29.5181917 Z M555.606474,29.5165031 L557.117594,34.6911681 L551.816882,34.6911681 L550.774644,31.1477907 C550.076719,33.1895596 547.721345,34.6911681 544.923331,34.6911681 C541.575548,34.6911681 538.86191,32.5416711 538.86191,29.889668 C538.86191,29.7655611 538.867889,29.6422985 538.879516,29.5165031 C539.117694,27.041289 541.732506,25.0881679 544.923331,25.0881679 C546.734416,25.0881679 548.359975,25.7173136 549.470643,26.7147275 L548.026791,21.8071878 L541.943113,21.8071878 C541.943113,21.8071878 542.955288,21.1900306 547.443968,19.5297003 C551.932649,17.8695389 553.355075,21.8071878 553.355075,21.8071878 L555.606474,29.5165031 L555.606474,29.5165031 Z M572.554171,29.5165031 L572.554171,34.6911681 L567.099988,34.6911681 L567.099988,23.3219669 C567.099988,22.4853775 566.432881,21.8071878 565.609962,21.8071878 C564.995684,21.8070399 564.444272,22.1901409 564.221253,22.7720131 L564.221253,34.6911681 L558.868221,34.6911681 L558.868221,21.8071878 L555.746325,21.8071878 C555.746325,21.8071878 560.089342,19.1323895 561.595313,19.1323895 C563.022556,19.1323895 564.078911,20.2471562 564.210956,21.6672088 C566.311376,20.5154634 568.39419,19.1323895 569.827246,19.1323895 C571.307805,19.1323895 572.51298,20.3319203 572.554171,21.8274501 L572.554171,29.5165031 Z M580.956351,29.5165031 L581.715399,32.0670257 C581.730015,33.1601792 582.613633,34.0346682 583.698224,34.0346682 C584.807066,34.0346682 585.705632,33.1211741 585.705632,31.9940813 C585.705632,31.9142139 585.701148,31.8356973 585.692345,31.7583627 L585.047071,29.5165031 L582.781055,21.6434005 C582.66944,20.6231915 581.818875,19.8300896 580.785606,19.8300896 C579.762802,19.8300896 578.787666,20.801669 578.663096,21.8070189 L580.956351,29.5165031 Z M589.636404,29.5175163 C588.603468,32.7015748 585.653479,35 582.175146,35 C578.696647,35 575.746491,32.7017436 574.713223,29.5165031 C574.451674,28.7092042 574.318837,27.8645692 574.319747,27.0146102 C574.319747,22.6043422 577.836614,19.0293893 582.175146,19.0293893 C586.513346,19.0293893 590.030212,22.6043422 590.030212,27.0146102 C590.030212,27.8887615 589.892023,28.7303242 589.636404,29.5175163 L589.636404,29.5175163 Z M598.667082,29.5165031 L598.667082,34.6911681 L593.313884,34.6911681 L593.313884,21.8071878 L590.320378,21.8071878 C590.320378,21.8071878 594.535004,19.1323895 596.041141,19.1323895 C597.46855,19.1323895 598.52474,20.2471562 598.657116,21.6672088 C600.757536,20.5154634 602.840019,19.1323895 604.273075,19.1323895 C605.753965,19.1323895 606.959141,20.3319203 607,21.8274501 L607,34.6911681 L601.545817,34.6911681 L601.545817,23.3219669 C601.545817,22.4853775 600.87871,21.8071878 600.055791,21.8071878 C599.441513,21.8070399 598.890101,22.1901409 598.667082,22.7720131 L598.667082,29.5165031 L598.667082,29.5165031 Z" id="Shape"></path>
            </g>
        </g>
    </g>
</svg>