<?xml version="1.0" encoding="UTF-8"?>
<svg width="100px" height="29px" viewBox="0 0 100 29" version="1.1" xmlns="http://www.w3.org/2000/svg" xmlns:xlink="http://www.w3.org/1999/xlink">
    <!-- Generator: Sketch 44.1 (41455) - http://www.bohemiancoding.com/sketch -->
    <title>Spotify</title>
    <desc>Created with Sketch.</desc>
    <defs></defs>
    <g id="Assets" stroke="none" stroke-width="1" fill="none" fill-rule="evenodd">
        <g id="Elements" transform="translate(-102.000000, -885.000000)" fill-rule="nonzero" fill="#000000">
            <g id="Logotypes" transform="translate(102.000000, 747.000000)">
                <path d="M14.9962548,138 C6.714229,138 0,144.491827 0,152.499738 C0,160.50851 6.714229,167 14.9962548,167 C23.2786489,167 29.9925095,160.50852 29.9925095,152.499738 C29.9925095,144.492341 23.2789969,138.000693 14.9960706,138.000693 L14.9962548,138 Z M21.873442,158.912787 C21.6041132,159.339948 21.028566,159.473787 20.5882154,159.21354 C17.0667101,157.132478 12.6342449,156.662376 7.41421794,157.815374 C6.9112013,157.926892 6.40979121,157.621973 6.29519342,157.135763 C6.18004306,156.649395 6.49395647,156.16458 6.99823176,156.053776 C12.710715,154.791002 17.61074,155.334518 21.5634581,157.66993 C22.0039826,157.931393 22.1436509,158.487199 21.8732579,158.913133 L21.873442,158.912787 L21.873442,158.912787 Z M23.7089509,154.965198 C23.3697828,155.497278 22.6502593,155.664192 22.1006831,155.337457 C18.0706047,152.942136 11.9252919,152.248327 7.15743458,153.64772 C6.53908338,153.828308 5.88600186,153.491362 5.69833123,152.894525 C5.51209319,152.29664 5.8607574,151.666381 6.47802391,151.484575 C11.9242277,149.886775 18.694676,150.660737 23.3237554,153.411199 C23.873526,153.738449 24.0472185,154.434504 23.7087667,154.965367 L23.7089509,154.965198 Z M23.8665369,150.85397 C19.0325855,148.078238 11.0591009,147.823018 6.44452153,149.177204 C5.70351928,149.3945 4.91988695,148.990026 4.69532686,148.273539 C4.47076677,147.556716 4.88872789,146.799534 5.63027248,146.581714 C10.9274859,145.026854 19.7334954,145.327261 25.2980525,148.521319 C25.9645697,148.903798 26.1832255,149.736116 25.7881757,150.379713 C25.3942107,151.02417 24.531069,151.236618 23.8667109,150.85397 L23.8665369,150.85397 L23.8665369,150.85397 Z M40.7998514,151.385881 C38.2106004,150.788866 37.7496613,150.369858 37.7496613,149.489385 C37.7496613,148.657592 38.5596125,148.097809 39.7640712,148.097809 C40.9316404,148.097809 42.0893554,148.522882 43.3031259,149.397973 C43.3398414,149.424469 43.3858688,149.435017 43.4311697,149.428101 C43.4764808,149.421521 43.5165936,149.397448 43.5430967,149.361265 L44.8073664,147.638096 C44.8592982,147.567105 44.8451461,147.469281 44.7751329,147.415081 C43.3305398,146.294298 41.7038222,145.749396 39.8024137,145.749396 C37.0066943,145.749396 35.0538862,147.371616 35.0538862,149.692671 C35.0538862,152.18167 36.7384399,153.062993 39.6494836,153.743287 C42.1271658,154.295105 42.5453111,154.757421 42.5453111,155.583852 C42.5453111,156.499627 41.6997086,157.068938 40.3389225,157.068938 C38.8275395,157.068938 37.594787,156.576683 36.215725,155.421953 C36.1815268,155.393379 36.1345989,155.380408 36.091273,155.382832 C36.0456038,155.386463 36.0038742,155.406894 35.9748742,155.440663 L34.5573163,157.071886 C34.4978634,157.139582 34.5053845,157.240701 34.5741596,157.299235 C36.1786616,158.684241 38.1520582,159.415797 40.2816287,159.415797 C43.2941926,159.415797 45.2409224,157.82422 45.2409224,155.360847 C45.2462947,153.281338 43.9587554,152.129903 40.8052441,151.388137 L40.7998514,151.385881 L40.7998514,151.385881 Z M52.0564874,148.916789 C50.7506825,148.916789 49.6796297,149.414071 48.7964316,150.433042 L48.7964316,149.286109 C48.7964316,149.195558 48.7205038,149.121797 48.6270266,149.121797 L46.3085473,149.121797 C46.2148962,149.121797 46.1391423,149.195558 46.1391423,149.286109 L46.1391423,162.030135 C46.1391423,162.120687 46.2148859,162.194448 46.3085473,162.194448 L48.6270266,162.194448 C48.7205038,162.194448 48.7964316,162.120697 48.7964316,162.030135 L48.7964316,158.007391 C49.6798138,158.965938 50.7510407,159.434309 52.0564874,159.434309 C54.4827699,159.434309 56.9389733,157.628384 56.9389733,154.176158 C56.9425548,150.72307 54.4856453,148.916621 52.0591787,148.916621 L52.0564874,148.916789 Z M54.2429936,154.176158 C54.2429936,155.934135 53.1230583,157.160884 51.5194363,157.160884 C49.9341004,157.160884 48.7382373,155.878372 48.7382373,154.176158 C48.7382373,152.474122 49.9341004,151.191441 51.5194363,151.191441 C53.0970976,151.191263 54.2431778,152.44624 54.2431778,154.17598 L54.2429936,154.176158 L54.2429936,154.176158 Z M63.2343407,148.916789 C60.1096655,148.916789 57.6617099,151.243207 57.6617099,154.213726 C57.6617099,157.151871 60.0928325,159.45387 63.1960186,159.45387 C66.3317964,159.45387 68.787263,157.135249 68.787263,154.176148 C68.787263,151.227268 66.348261,148.917136 63.2341565,148.917136 L63.2343407,148.916789 L63.2343407,148.916789 Z M63.2343407,157.178367 C61.5723402,157.178367 60.3193573,155.887197 60.3193573,154.175287 C60.3193573,152.456095 61.5290142,151.208568 63.1960084,151.208568 C64.8687534,151.208568 66.1301476,152.499728 66.1301476,154.212855 C66.1301476,155.931701 64.9124477,157.178367 63.2345044,157.178367 L63.2343407,157.178367 L63.2343407,157.178367 Z M75.4597624,149.121807 L72.9084855,149.121807 L72.9084855,146.599731 C72.9084855,146.509348 72.8329158,146.435587 72.7392647,146.435587 L70.4211435,146.435587 C70.3273082,146.435587 70.2512065,146.509348 70.2512065,146.599731 L70.2512065,149.121807 L69.1364593,149.121807 C69.0431663,149.121807 68.9675864,149.195558 68.9675864,149.286119 L68.9675864,151.212733 C68.9675864,151.303116 69.0431663,151.377046 69.1364593,151.377046 L70.2512065,151.377046 L70.2512065,156.362147 C70.2512065,158.37672 71.2882248,159.398126 73.3334357,159.398126 C74.1650703,159.398126 74.8550311,159.232072 75.5052576,158.875565 C75.5580797,158.846991 75.5908453,158.791939 75.5908453,158.733415 L75.5908453,156.898738 C75.5908453,156.842114 75.5603923,156.788616 75.5102615,156.759013 C75.4597624,156.72836 75.3969121,156.726807 75.3451543,156.751562 C74.898531,156.968868 74.4667964,157.069116 73.9841841,157.069116 C73.2403166,157.069116 72.9084855,156.742559 72.9084855,156.010667 L72.9084855,151.377926 L75.4597624,151.377926 C75.5534135,151.377926 75.6288092,151.304165 75.6288092,151.213614 L75.6288092,149.287168 C75.6323907,149.196616 75.5571792,149.122855 75.4622796,149.122855 L75.4597624,149.121807 L75.4597624,149.121807 Z M84.3490469,149.131671 L84.3490469,148.821904 C84.3490469,147.910621 84.7104101,147.504247 85.5209139,147.504247 C86.0042323,147.504247 86.3924772,147.597055 86.8272612,147.737304 C86.8808097,147.75359 86.9366709,147.745447 86.9801912,147.714449 C87.02496,147.68345 87.0502147,147.633762 87.0502147,147.581125 L87.0502147,145.692079 C87.0502147,145.619872 87.0022226,145.555985 86.9302242,145.534683 C86.4708916,145.402566 85.8831776,145.266996 85.0032131,145.266996 C82.8618237,145.266996 81.7298955,146.432975 81.7298955,148.637665 L81.7298955,149.11209 L80.6160488,149.11209 C80.5225716,149.11209 80.4459275,149.185852 80.4459275,149.276235 L80.4459275,151.212723 C80.4459275,151.303106 80.5225716,151.377036 80.6160488,151.377036 L81.7298955,151.377036 L81.7298955,159.066354 C81.7298955,159.156906 81.8054652,159.230667 81.8989526,159.230667 L84.2174319,159.230667 C84.311083,159.230667 84.387369,159.156906 84.387369,159.066354 L84.387369,151.37757 L86.5520279,151.37757 L89.8679552,159.064989 C89.4915395,159.87272 89.121376,160.033401 88.6160468,160.033401 C88.2075715,160.033401 87.7774333,159.915483 87.3376148,159.682772 C87.2962535,159.660777 87.247187,159.657146 87.2026024,159.670483 C87.1583658,159.685542 87.1211284,159.717401 87.1023204,159.758957 L86.3165392,161.425848 C86.2791074,161.504636 86.3111669,161.597107 86.3896018,161.63796 C87.2099394,162.067535 87.95043,162.250894 88.8656774,162.250894 C90.5776244,162.250894 91.5238671,161.479871 92.3579986,159.405557 L96.3801875,149.356061 C96.4004179,149.305502 96.3943396,149.248363 96.36228,149.203523 C96.3304252,149.159019 96.2790153,149.132186 96.2227755,149.132186 L93.8092022,149.132186 C93.7368764,149.132186 93.6721945,149.17668 93.648577,149.242308 L91.1761034,156.070912 L88.4679568,149.237806 C88.4432547,149.174256 88.3798621,149.132176 88.3096647,149.132176 L84.3485148,149.132176 L84.3490469,149.131671 L84.3490469,149.131671 Z M79.1952675,149.121807 L76.8767882,149.121807 C76.7831268,149.121807 76.7068511,149.195558 76.7068511,149.286119 L76.7068511,159.066364 C76.7068511,159.156916 76.7831268,159.230677 76.8767882,159.230677 L79.1952675,159.230677 C79.2887447,159.230677 79.3652046,159.156916 79.3652046,159.066364 L79.3652046,149.286802 C79.3653056,149.243161 79.3474073,149.201282 79.3154739,149.170441 C79.2835405,149.1396 79.2402077,149.122342 79.1950731,149.122489 L79.1952675,149.121807 Z M78.0491873,144.668616 C77.1307166,144.668616 76.3854063,145.387517 76.3854063,146.275598 C76.3854063,147.164194 77.1309008,147.883976 78.0491975,147.883976 C78.9673203,147.883976 79.7118939,147.164194 79.7118939,146.275598 C79.7118939,145.387695 78.966952,144.668616 78.050098,144.668616 L78.0491873,144.668616 L78.0491873,144.668616 Z M98.3598467,152.266334 C97.4422662,152.266334 96.7283094,151.553825 96.7283094,150.688609 C96.7283094,149.823393 97.4515883,149.10275 98.3684423,149.10275 C99.2860432,149.10275 100,149.815082 100,150.679605 C100,151.544831 99.2765266,152.266334 98.3596829,152.266334 L98.3598467,152.266334 L98.3598467,152.266334 Z M98.3688004,149.259623 C97.5330624,149.259623 96.9007433,149.902002 96.9007433,150.688609 C96.9007433,151.474879 97.5285804,152.108601 98.360389,152.108601 C99.1959429,152.108601 99.8289885,151.466746 99.8289885,150.679605 C99.8289885,149.893345 99.2004249,149.259623 98.369527,149.259623 L98.3688004,149.259623 L98.3688004,149.259623 Z M98.7305525,150.84184 L99.1920339,151.466568 L98.802909,151.466568 L98.3874345,150.893448 L98.0302054,150.893448 L98.0302054,151.466568 L97.704473,151.466568 L97.704473,149.81058 L98.4682229,149.81058 C98.8661276,149.81058 99.1277613,150.007444 99.1277613,150.33886 C99.1295419,150.610356 98.9665938,150.776232 98.7319953,150.84185 L98.7305525,150.84185 L98.7305525,150.84184 Z M98.4547769,150.094721 L98.0299905,150.094721 L98.0299905,150.618499 L98.4547769,150.618499 C98.6667915,150.618499 98.7933822,150.518241 98.7933822,150.356352 C98.7933822,150.185975 98.6662492,150.094731 98.4549406,150.094731 L98.4547769,150.094731 L98.4547769,150.094721 Z" id="Spotify"></path>
            </g>
        </g>
    </g>
</svg>