<?xml version="1.0" encoding="UTF-8"?>
<svg width="16px" height="16px" viewBox="0 0 16 16" version="1.1" xmlns="http://www.w3.org/2000/svg" xmlns:xlink="http://www.w3.org/1999/xlink">
    <!-- Generator: Sketch 44.1 (41455) - http://www.bohemiancoding.com/sketch -->
    <title>Twitter White Icon</title>
    <desc>Created with Sketch.</desc>
    <defs></defs>
    <g id="Assets" stroke="none" stroke-width="1" fill="none" fill-rule="evenodd">
        <g id="Elements" transform="translate(-2045.000000, -68.000000)" fill="#FFFFFF">
            <g id="Social-Icons" transform="translate(2029.000000, 52.000000)">
                <g id="Twitter">
                    <path d="M24,48 C10.745166,48 0,37.254834 0,24 C0,10.745166 10.745166,7.10542736e-14 24,7.10542736e-14 C37.254834,7.10542736e-14 48,10.745166 48,24 C48,37.254834 37.254834,48 24,48 Z M24,46 C36.1502645,46 46,36.1502645 46,24 C46,11.8497355 36.1502645,2 24,2 C11.8497355,2 2,11.8497355 2,24 C2,36.1502645 11.8497355,46 24,46 Z" id="Base" opacity="0.300000012"></path>
                    <path d="M24,7.10542736e-14 C37.254834,7.10542736e-14 48,10.745166 48,24 C48,37.254834 37.254834,48 24,48 L24,46 C36.1502645,46 46,36.1502645 46,24 C46,11.8497355 36.1502645,2 24,2 L24,7.10542736e-14 Z" id="half-circle-icon"></path>
                    <path d="M30.3709819,21.6576712 C30.3709819,25.9975012 27.0695852,31 21.0318115,31 C19.2424203,30.9990557 17.4927276,30.4862421 16,29.5252374 C16.2598466,29.5535658 16.5210273,29.5687452 16.7824891,29.5707146 C18.2674723,29.5707411 19.7072025,29.0729197 20.859704,28.1609195 C19.4403253,28.1268772 18.2033373,27.2102522 17.7911194,25.8870565 C17.9949968,25.9263082 18.2023505,25.9458931 18.410173,25.9455272 C18.7034566,25.9465401 18.9954146,25.9071701 19.2773817,25.8285857 C17.7272796,25.5005872 16.6267966,24.1574899 16.6424015,22.6126937 C17.0983371,22.8226991 17.6083486,22.9629601 18.130665,22.9830085 C16.6833518,21.9939123 16.2437042,20.0962254 17.1146967,18.5977011 C18.7567657,20.6374235 21.2228016,21.8877566 23.8802585,22.027986 C23.8236955,21.782768 23.7952814,21.5321888 23.7955389,21.2808596 C23.7718064,19.4920457 25.2415119,18.0231725 27.0782572,18 C27.9903026,18.0004165 28.8598576,18.3754895 29.4730873,19.0329835 C30.2111204,18.8911763 30.9174175,18.6228055 31.5590577,18.2403798 C31.3188954,18.9951505 30.8054286,19.6392813 30.1141547,20.0529735 C30.7660492,19.9769612 31.4020835,19.8038609 32,19.5397301 C31.5616715,20.1948507 31.0073959,20.7689774 30.3629769,21.2353823 C30.3689806,21.3783108 30.3709819,21.5212394 30.3709819,21.6576712 Z" id="Twitter-Icon"></path>
                </g>
            </g>
        </g>
    </g>
</svg>