<?xml version="1.0" encoding="UTF-8"?>
<svg width="95px" height="24px" viewBox="0 0 95 24" version="1.1" xmlns="http://www.w3.org/2000/svg" xmlns:xlink="http://www.w3.org/1999/xlink">
    <!-- Generator: Sketch 44.1 (41455) - http://www.bohemiancoding.com/sketch -->
    <title>Webflow</title>
    <desc>Created with Sketch.</desc>
    <defs></defs>
    <g id="Assets" stroke="none" stroke-width="1" fill="none" fill-rule="evenodd">
        <g id="Elements" transform="translate(-104.000000, -760.000000)" fill="#000000">
            <g id="Logotypes" transform="translate(102.000000, 747.000000)">
                <path d="M59.2969726,13.0808696 L56.9927671,31.7403478 L56.9873014,31.7369565 L56.5188082,34.0443478 L56.7072466,34.0503478 L56.7072466,34.0503478 C59.1876575,34.0198261 60.9471096,31.8329565 61.2789589,29.0771304 L62.6102603,18.3671304 C63.0142055,15.1057391 61.076726,13.0808696 59.2969726,13.0808696 Z M91.9535479,23.1191304 C91.9535479,23.1191304 90.3658767,28.1194783 90.2430274,28.5389565 C90.1990411,28.1194783 89.0374384,19.1372174 89.0374384,19.1372174 C86.3329315,19.1372174 84.886589,21.0676522 84.1234658,23.1167826 C84.1234658,23.1167826 82.1930137,28.1322609 82.0358082,28.5522609 C82.0266986,28.1583478 81.7393562,23.1686957 81.7393562,23.1686957 C81.5759041,20.6612174 79.2953836,19.1437391 77.4487397,19.1437391 L79.6699178,32.7517391 C82.5069041,32.7426087 84.0266438,30.8163478 84.8280274,28.7698261 C84.8280274,28.7698261 86.5270959,24.3454783 86.596589,24.1443478 C86.6142877,24.3363478 87.8180548,32.7530435 87.8180548,32.7530435 C90.6581644,32.7530435 92.1906575,30.9491304 93.0149452,28.9766957 L97,19.1437391 C94.1929452,19.1437391 92.7158904,21.0681739 91.9535479,23.1191304 Z M72.2362329,25.7317391 C72.0722603,27.3986957 71.3403699,29.9173913 69.3393836,29.9173913 C67.3308493,29.9173913 67.6166301,26.962 67.8107945,25.5608696 C68.0190137,24.0566957 68.861,21.928 70.6509041,21.928 C72.2682466,21.9266957 72.4215479,23.8493043 72.2362329,25.7317391 Z M70.9546438,18.907913 C67.7928356,18.907913 64.8121781,21.2445217 63.896274,24.9209565 C62.9803699,28.5973913 64.3717945,32.9364348 69.0200274,32.9364348 C73.6682603,32.9364348 76.3389315,28.4134783 76.3389315,24.6561739 C76.3389315,20.8988696 73.809589,18.907913 70.9546438,18.907913 Z M56.7137534,19.1445217 L53.970726,19.1445217 L53.984,19.0002609 C54.1706164,17.2002609 54.6000685,16.2569565 55.9881096,16.1124348 C56.9362877,16.0138261 57.3652192,15.5186957 57.4651644,14.9841739 C57.5432466,14.5641739 57.8084658,13.0798261 57.8084658,13.0798261 C52.3047123,13.048 50.5788356,15.4336522 50.1389726,19.0602609 L50.1288219,19.1426957 L50.0744247,19.144 C49.1806438,19.144 48.2004521,20.160087 48.028411,21.4503478 L47.9680274,21.9256522 L49.7980137,21.9256522 L48.2623973,34.6965217 L47.7970274,36.9921739 L47.985726,37 C50.5551507,36.9024348 52.2089315,34.8673913 52.5735753,31.9044348 L53.7729178,21.9274783 L54.6318219,21.9274783 C55.4735479,21.9274783 56.4631096,21.079913 56.6455616,19.6633913 L56.7137534,19.1445217 Z M42.7386027,25.8407826 C42.3323151,28.2407826 41.0030959,29.8610435 39.7160411,29.8610435 C38.4190959,29.8610435 37.8712192,29.2871304 37.8712192,29.2871304 C38.1127534,27.1876522 38.2736027,25.9 38.746,24.7918261 C39.2183973,23.6836522 40.3336712,21.9131304 41.501,21.9131304 C42.6355342,21.9118261 43.1451507,23.4410435 42.7386027,25.8407826 Z M43.0985616,18.8273043 C41.3531644,18.8273043 40.0078082,19.7797391 38.8756164,21.1871304 L38.8774384,21.1769565 L39.8836575,13 C37.5596712,13 35.6612329,15.0313913 35.2999726,18.046 L33.5321918,32.6453043 C34.872863,32.6453043 36.2926575,32.254 37.0602055,31.2647826 C37.8112344,32.2864705 39.0099615,32.8796691 40.2758904,32.856087 C44.1953562,32.856087 46.8889315,28.2812174 46.8889315,23.9865217 C46.8889315,20.0664348 44.9899726,18.8273043 43.0985616,18.8273043 L43.0985616,18.8273043 Z M16.5048082,23.1191304 C16.5048082,23.1191304 14.917137,28.1194783 14.7945479,28.5389565 C14.7510822,28.1194783 13.5889589,19.1372174 13.5889589,19.1372174 C10.8844521,19.1372174 9.43784932,21.0676522 8.67524658,23.1167826 C8.67524658,23.1167826 6.74427397,28.1322609 6.58732877,28.5522609 C6.57847945,28.1583478 6.29061644,23.1686957 6.29061644,23.1686957 C6.12742466,20.6612174 3.84716438,19.1437391 2,19.1437391 L4.22169863,32.7517391 C7.05868493,32.7426087 8.57816438,30.8163478 9.37954795,28.7698261 C9.37954795,28.7698261 11.0786164,24.3454783 11.149411,24.1443478 C11.1668493,24.3363478 12.3706164,32.7530435 12.3706164,32.7530435 C15.2104658,32.7530435 16.7432192,30.9491304 17.5672466,28.9766957 L21.5523014,19.1445217 C18.7444658,19.1437391 17.2671507,21.0681739 16.5048082,23.1191304 Z M29.0101918,22.6623478 C28.9623014,23.1908696 28.7470548,24.103913 25.0110822,24.6066087 C25.7991918,21.7970435 27.3014932,21.5883478 27.9961644,21.5883478 C28.2790702,21.5756454 28.5535141,21.6868232 28.7481625,21.8929837 C28.9428109,22.0991441 29.0384392,22.3799259 29.0101918,22.6623478 L29.0101918,22.6623478 Z M32.6693836,22.3753913 C32.6693836,20.6612174 31.0156027,18.8447826 28.1476438,18.8447826 C24.9254521,18.8447826 21.3911918,21.2134783 20.8446164,25.9464348 C20.2923151,30.732087 23.2594384,32.8461739 26.2395753,32.8461739 C29.2197123,32.8461739 30.7889041,31.680087 32.3820411,30.1166957 C31.0059726,28.3772174 29.232726,29.1872174 28.8961918,29.356 C28.3320638,29.668646 27.694092,29.8225999 27.0498082,29.8015652 C25.8944521,29.8015652 24.7234795,29.2772174 24.7234795,27.124 C32.1066712,26.4141739 32.6693836,24.090087 32.6693836,22.3761739 L32.6693836,22.3753913 Z" id="Webflow"></path>
            </g>
        </g>
    </g>
</svg>